<svg xmlns="http://www.w3.org/2000/svg" xmlns:xlink="http://www.w3.org/1999/xlink" width="500" zoomAndPan="magnify" viewBox="0 0 375 374.999991" height="500" preserveAspectRatio="xMidYMid meet" version="1.0"><defs><g/><clipPath id="9d9215cc5a"><path d="M 71.433594 53.101562 L 303.933594 53.101562 L 303.933594 321.601562 L 71.433594 321.601562 Z M 71.433594 53.101562 " clip-rule="nonzero"/></clipPath><clipPath id="15f00ca57f"><path d="M 78.078125 61.175781 L 297.078125 61.175781 L 297.078125 313.925781 L 78.078125 313.925781 Z M 78.078125 61.175781 " clip-rule="nonzero"/></clipPath><clipPath id="ca3f2217af"><path d="M 61 162 L 270 162 L 270 250 L 61 250 Z M 61 162 " clip-rule="nonzero"/></clipPath><clipPath id="ff06df868e"><path d="M 272.472656 202.339844 L 70.664062 265.625 L 54.054688 212.667969 L 255.867188 149.382812 Z M 272.472656 202.339844 " clip-rule="nonzero"/></clipPath><clipPath id="f3eb17e4d9"><path d="M 272.472656 202.339844 L 70.664062 265.625 L 54.054688 212.667969 L 255.867188 149.382812 Z M 272.472656 202.339844 " clip-rule="nonzero"/></clipPath></defs><g clip-path="url(#9d9215cc5a)"><path fill="#ffffff" d="M 303.933594 254.4375 L 187.683594 321.519531 L 71.433594 254.4375 L 71.433594 120.269531 L 187.683594 53.183594 L 303.933594 120.269531 Z M 303.933594 254.4375 " fill-opacity="1" fill-rule="nonzero"/></g><g clip-path="url(#15f00ca57f)"><path fill="#000000" d="M 85.667969 128.796875 L 187.578125 70.046875 L 289.492188 128.796875 L 289.492188 246.304688 L 187.578125 305.109375 L 85.667969 246.304688 L 85.667969 128.796875 M 78.078125 124.402344 L 78.078125 250.699219 L 187.578125 313.847656 L 297.078125 250.699219 L 297.078125 124.402344 L 187.578125 61.253906 Z M 78.078125 124.402344 " fill-opacity="1" fill-rule="nonzero"/></g><g clip-path="url(#ca3f2217af)"><g clip-path="url(#ff06df868e)"><g clip-path="url(#f3eb17e4d9)"><path fill="#a6a6a6" d="M 219.871094 178.589844 L 193.445312 186.875 L 192.855469 186.824219 L 181.363281 180.832031 L 158.878906 187.882812 L 149.25 198.339844 L 148.914062 198.558594 L 134.460938 203.089844 L 124.449219 213.964844 L 124.109375 214.183594 L 66.117188 232.367188 L 65.886719 231.628906 C 66.214844 232.683594 65.625 233.804688 64.570312 234.136719 C 63.515625 234.46875 62.390625 233.882812 62.058594 232.828125 C 61.730469 231.773438 62.316406 230.648438 63.371094 230.316406 C 64.429688 229.988281 65.554688 230.574219 65.886719 231.628906 L 65.652344 230.886719 L 123.453125 212.761719 L 131.5 204.019531 L 66.597656 224.371094 L 66.136719 222.890625 L 133.605469 201.730469 L 143.234375 191.273438 L 143.570312 191.054688 L 158.03125 186.523438 L 166.21875 177.625 L 166.554688 177.410156 L 198.105469 167.515625 L 198.699219 167.566406 L 209.628906 173.269531 L 237.292969 164.59375 C 237.363281 163.816406 237.894531 163.121094 238.6875 162.871094 C 239.746094 162.539062 240.871094 163.125 241.199219 164.179688 C 241.53125 165.234375 240.941406 166.359375 239.886719 166.691406 C 239.09375 166.9375 238.261719 166.671875 237.753906 166.074219 L 209.785156 174.84375 L 209.195312 174.792969 L 198.261719 169.09375 L 167.210938 178.828125 L 160.984375 185.597656 L 181.207031 179.253906 L 181.800781 179.308594 L 193.289062 185.300781 L 219.40625 177.109375 Z M 77.175781 240.675781 C 76.121094 241.007812 74.992188 240.421875 74.664062 239.367188 C 74.332031 238.3125 74.921875 237.1875 75.976562 236.859375 C 77.03125 236.527344 78.148438 237.109375 78.484375 238.15625 L 78.257812 237.425781 L 120.261719 224.253906 L 139.078125 203.816406 L 139.414062 203.597656 L 168.707031 194.414062 L 180.273438 200.445312 L 224.167969 186.679688 L 224.632812 188.160156 L 180.125 202.117188 L 168.558594 196.085938 L 140.070312 205.019531 L 121.253906 225.460938 L 120.917969 225.675781 L 78.722656 238.90625 L 78.492188 238.179688 C 78.816406 239.230469 78.226562 240.347656 77.175781 240.675781 Z M 268.164062 195.300781 C 267.371094 195.550781 266.539062 195.28125 266.035156 194.683594 L 223.902344 207.894531 L 217.851562 219.453125 L 188.558594 228.636719 L 188.160156 228.652344 L 161.042969 222.613281 L 147.992188 226.707031 L 140.285156 235.078125 L 139.949219 235.296875 L 108.089844 245.285156 L 100.828125 241.496094 L 83.835938 246.824219 L 83.371094 245.34375 L 98.878906 240.480469 L 96.875 239.4375 L 69.210938 248.113281 C 69.136719 248.890625 68.609375 249.585938 67.816406 249.835938 C 66.757812 250.164062 65.632812 249.578125 65.304688 248.523438 C 64.972656 247.46875 65.5625 246.347656 66.617188 246.015625 C 67.410156 245.765625 68.242188 246.035156 68.746094 246.632812 L 97.027344 237.765625 L 100.976562 239.824219 L 147.140625 225.347656 L 157.25 214.367188 L 157.589844 214.148438 L 238.140625 188.886719 C 238.214844 188.109375 238.746094 187.414062 239.539062 187.167969 C 240.59375 186.835938 241.71875 187.421875 242.050781 188.476562 C 242.378906 189.53125 241.792969 190.652344 240.734375 190.984375 C 239.941406 191.234375 239.109375 190.964844 238.605469 190.367188 L 158.246094 215.566406 L 150.097656 224.421875 L 160.769531 221.074219 L 161.167969 221.0625 L 188.289062 227.097656 L 216.773438 218.164062 L 222.824219 206.609375 L 265.570312 193.203125 C 265.644531 192.425781 266.171875 191.730469 266.96875 191.480469 C 268.023438 191.152344 269.148438 191.738281 269.476562 192.792969 C 269.808594 193.847656 269.222656 194.96875 268.164062 195.300781 Z M 145.035156 227.632812 L 102.921875 240.839844 L 108.242188 243.613281 L 139.289062 233.878906 Z M 155.925781 188.808594 L 144.230469 192.476562 L 136.566406 200.804688 L 148.257812 197.136719 Z M 155.925781 188.808594 " fill-opacity="1" fill-rule="nonzero"/></g></g></g><g fill="#000000" fill-opacity="1"><g transform="translate(136.493024, 213.757486)"><g><path d="M 42.546875 -60.484375 L 42.546875 -18.78125 C 42.546875 -14.820312 41.65625 -11.359375 39.875 -8.390625 C 38.101562 -5.429688 35.664062 -3.15625 32.5625 -1.5625 C 29.46875 0.03125 25.976562 0.828125 22.09375 0.828125 C 18.050781 0.828125 14.492188 0.144531 11.421875 -1.21875 C 8.347656 -2.59375 5.953125 -4.691406 4.234375 -7.515625 C 2.515625 -10.335938 1.65625 -13.84375 1.65625 -18.03125 L 14.75 -18.03125 C 14.75 -14.976562 15.367188 -12.820312 16.609375 -11.5625 C 17.859375 -10.300781 19.6875 -9.671875 22.09375 -9.671875 C 24.394531 -9.671875 26.207031 -10.472656 27.53125 -12.078125 C 28.863281 -13.691406 29.53125 -15.925781 29.53125 -18.78125 L 29.53125 -60.484375 Z M 42.546875 -60.484375 "/></g></g></g><g fill="#000000" fill-opacity="1"><g transform="translate(184.093656, 213.757486)"><g><path d="M 34.859375 -31.078125 C 38.148438 -29.878906 40.660156 -28.078125 42.390625 -25.671875 C 44.117188 -23.265625 44.984375 -20.367188 44.984375 -16.984375 C 44.984375 -13.304688 44.039062 -10.125 42.15625 -7.4375 C 40.28125 -4.75 37.703125 -2.695312 34.421875 -1.28125 C 31.140625 0.125 27.421875 0.828125 23.265625 0.828125 C 19.691406 0.828125 16.316406 0.1875 13.140625 -1.09375 C 9.972656 -2.382812 7.40625 -4.34375 5.4375 -6.96875 C 3.476562 -9.601562 2.5 -12.832031 2.5 -16.65625 L 15.03125 -16.65625 C 15.03125 -15.269531 15.40625 -14.007812 16.15625 -12.875 C 16.90625 -11.738281 17.929688 -10.851562 19.234375 -10.21875 C 20.535156 -9.582031 21.988281 -9.265625 23.59375 -9.265625 C 25.425781 -9.265625 27.015625 -9.601562 28.359375 -10.28125 C 29.703125 -10.957031 30.722656 -11.890625 31.421875 -13.078125 C 32.128906 -14.273438 32.484375 -15.648438 32.484375 -17.203125 C 32.484375 -23.066406 29.285156 -26 22.890625 -26 L 16.40625 -26 L 16.40625 -35.765625 L 22.890625 -35.765625 C 25.710938 -35.765625 27.859375 -36.484375 29.328125 -37.921875 C 30.796875 -39.367188 31.53125 -41.351562 31.53125 -43.875 C 31.53125 -46.0625 30.859375 -47.835938 29.515625 -49.203125 C 28.171875 -50.578125 26.195312 -51.265625 23.59375 -51.265625 C 22.207031 -51.265625 20.921875 -51 19.734375 -50.46875 C 18.546875 -49.945312 17.597656 -49.203125 16.890625 -48.234375 C 16.179688 -47.265625 15.828125 -46.140625 15.828125 -44.859375 L 3.28125 -44.859375 C 3.28125 -48.128906 4.171875 -51.015625 5.953125 -53.515625 C 7.742188 -56.023438 10.160156 -57.957031 13.203125 -59.3125 C 16.253906 -60.675781 19.609375 -61.359375 23.265625 -61.359375 C 27.421875 -61.359375 31.0625 -60.695312 34.1875 -59.375 C 37.320312 -58.0625 39.753906 -56.109375 41.484375 -53.515625 C 43.210938 -50.929688 44.078125 -47.785156 44.078125 -44.078125 C 44.078125 -41.390625 43.257812 -38.878906 41.625 -36.546875 C 39.988281 -34.222656 37.734375 -32.398438 34.859375 -31.078125 Z M 34.859375 -31.078125 "/></g></g></g><g fill="#a6a6a6" fill-opacity="1"><g transform="translate(169.789806, 249.034539)"><g><path d="M 4.222656 0 L 5.28125 0 C 5.796875 0 6.070312 -0.265625 6.070312 -0.78125 L 6.070312 -6.648438 C 6.070312 -7.078125 6.433594 -7.429688 6.863281 -7.429688 L 7.933594 -7.429688 C 8.449219 -7.429688 8.722656 -7.703125 8.722656 -8.21875 L 8.722656 -8.808594 C 8.722656 -9.324219 8.449219 -9.601562 7.933594 -9.601562 L 1.585938 -9.613281 C 1.054688 -9.613281 0.792969 -9.335938 0.792969 -8.820312 L 0.792969 -8.21875 C 0.792969 -7.703125 1.066406 -7.429688 1.585938 -7.429688 L 2.640625 -7.429688 C 3.085938 -7.429688 3.445312 -7.078125 3.445312 -6.648438 L 3.445312 -0.792969 C 3.445312 -0.277344 3.707031 0 4.222656 0 Z M 4.222656 0 "/></g></g></g><g fill="#a6a6a6" fill-opacity="1"><g transform="translate(179.30582, 249.034539)"><g><path d="M 1.597656 0 L 8.628906 0 C 9.085938 0 9.433594 -0.347656 9.433594 -0.804688 L 9.433594 -1.367188 C 9.433594 -1.824219 9.085938 -2.171875 8.628906 -2.171875 L 4.199219 -2.171875 C 3.769531 -2.171875 3.421875 -2.519531 3.421875 -2.964844 C 3.421875 -3.394531 3.769531 -3.757812 4.199219 -3.757812 L 8.148438 -3.757812 C 8.59375 -3.757812 8.953125 -4.105469 8.953125 -4.570312 L 8.953125 -5.050781 C 8.953125 -5.507812 8.605469 -5.855469 8.148438 -5.855469 L 4.199219 -5.855469 C 3.769531 -5.855469 3.421875 -6.203125 3.421875 -6.636719 C 3.421875 -7.078125 3.769531 -7.429688 4.199219 -7.429688 L 8.628906 -7.429688 C 9.085938 -7.429688 9.433594 -7.777344 9.433594 -8.230469 L 9.433594 -8.796875 C 9.433594 -9.253906 9.085938 -9.601562 8.628906 -9.601562 L 1.597656 -9.601562 C 1.140625 -9.601562 0.792969 -9.253906 0.792969 -8.796875 L 0.792969 -0.804688 C 0.792969 -0.347656 1.140625 0 1.597656 0 Z M 1.597656 0 "/></g></g></g><g fill="#a6a6a6" fill-opacity="1"><g transform="translate(189.529845, 249.034539)"><g><path d="M 3.730469 0 L 8.617188 0 C 9.070312 0 9.421875 -0.347656 9.421875 -0.804688 L 9.421875 -1.367188 C 9.421875 -1.824219 9.070312 -2.171875 8.617188 -2.171875 L 4.199219 -2.171875 C 3.769531 -2.171875 3.421875 -2.519531 3.421875 -2.964844 L 3.421875 -6.636719 C 3.421875 -7.078125 3.769531 -7.429688 4.199219 -7.429688 L 8.617188 -7.429688 C 9.058594 -7.429688 9.421875 -7.765625 9.421875 -8.21875 L 9.421875 -8.796875 C 9.421875 -9.253906 9.070312 -9.601562 8.617188 -9.601562 L 3.730469 -9.601562 C 2.027344 -9.601562 0.792969 -8.363281 0.792969 -6.660156 L 0.792969 -2.941406 C 0.792969 -1.234375 2.027344 0 3.730469 0 Z M 3.730469 0 "/></g></g></g></svg>